<svg width="18" height="17" viewBox="0 0 18 17" fill="none" xmlns="http://www.w3.org/2000/svg">
<path d="M15.6667 4.83341H12.3334V2.33341C12.3334 1.41425 11.5859 0.666748 10.6667 0.666748H7.33335C6.41419 0.666748 5.66669 1.41425 5.66669 2.33341V6.50008H2.33335C1.41419 6.50008 0.666687 7.24758 0.666687 8.16675V15.6667C0.666687 15.8878 0.754484 16.0997 0.910765 16.256C1.06704 16.4123 1.27901 16.5001 1.50002 16.5001H16.5C16.721 16.5001 16.933 16.4123 17.0893 16.256C17.2456 16.0997 17.3334 15.8878 17.3334 15.6667V6.50008C17.3334 5.58091 16.5859 4.83341 15.6667 4.83341ZM2.33335 8.16675H5.66669V14.8334H2.33335V8.16675ZM7.33335 2.33341H10.6667V14.8334H7.33335V2.33341ZM15.6667 14.8334H12.3334V6.50008H15.6667V14.8334Z" fill="#007aff"/>
</svg>
