<svg width="65" height="41" viewBox="0 0 65 41" fill="none" xmlns="http://www.w3.org/2000/svg">
<g clip-path="url(#clip0_261_6801)">
<path d="M41.3887 4.77734H23.8887V36.2218H41.3887V4.77734Z" fill="#FF5F00"/>
<path d="M25.0003 20.4997C25.0003 14.3886 27.8336 8.5553 32.6114 4.77752C23.9447 -2.05581 11.3892 -0.555814 4.55584 8.16641C-2.27749 16.8331 -0.777494 29.3886 7.94473 36.222C15.2225 41.9442 25.3892 41.9442 32.667 36.222C27.8336 32.4442 25.0003 26.6109 25.0003 20.4997Z" fill="#EB001B"/>
<path d="M64.9993 20.4997C64.9993 31.5553 56.0549 40.4997 44.9993 40.4997C40.4993 40.4997 36.166 38.9997 32.666 36.222C41.3327 29.3886 42.8327 16.8331 35.9994 8.11085C34.9994 6.88863 33.8882 5.72196 32.666 4.77752C41.3327 -2.05581 53.9438 -0.555814 60.7216 8.16641C63.4993 11.6664 64.9993 15.9997 64.9993 20.4997Z" fill="#F79E1B"/>
<path d="M63.1115 32.8886V32.2219H63.3893V32.1108H62.7227V32.2219H63.0004V32.8886H63.1115ZM64.3893 32.8886V32.1108H64.1671L63.9449 32.6664L63.7227 32.1108H63.5004V32.8886H63.6671V32.2775L63.8893 32.7775H64.056L64.2782 32.2775V32.8886H64.3893Z" fill="#F79E1B"/>
</g>
<defs>
<clipPath id="clip0_261_6801">
<rect width="64.7222" height="40" fill="white" transform="translate(0.277344 0.5)"/>
</clipPath>
</defs>
</svg>
