<svg width="18" height="18" viewBox="0 0 18 18" fill="none" xmlns="http://www.w3.org/2000/svg">
<path d="M8.16663 4.83341H9.83329V10.6667H8.16663V4.83341ZM8.16663 11.5001H9.83329V13.1667H8.16663V11.5001Z" fill="#EC221F"/>
<path d="M17.0891 5.07758L12.9225 0.910916C12.8452 0.83338 12.7534 0.77189 12.6523 0.729986C12.5511 0.688081 12.4427 0.66659 12.3333 0.666749H5.66663C5.55717 0.66659 5.44877 0.688081 5.34766 0.729986C5.24654 0.77189 5.15471 0.83338 5.07746 0.910916L0.910793 5.07758C0.833258 5.15484 0.771768 5.24666 0.729864 5.34778C0.687959 5.44889 0.666468 5.5573 0.666627 5.66675V12.3334C0.666627 12.5551 0.754127 12.7667 0.910793 12.9226L5.07746 17.0893C5.15471 17.1668 5.24654 17.2283 5.34766 17.2702C5.44877 17.3121 5.55717 17.3336 5.66663 17.3334H12.3333C12.555 17.3334 12.7666 17.2459 12.9225 17.0893L17.0891 12.9226C17.1667 12.8453 17.2282 12.7535 17.2701 12.6524C17.312 12.5513 17.3335 12.4429 17.3333 12.3334V5.66675C17.3335 5.5573 17.312 5.44889 17.2701 5.34778C17.2282 5.24666 17.1667 5.15484 17.0891 5.07758ZM15.6666 11.9884L11.9883 15.6667H6.01163L2.33329 11.9884V6.01175L6.01163 2.33342H11.9883L15.6666 6.01175V11.9884Z" fill="#EC221F"/>
</svg>
