<svg width="18" height="18" viewBox="0 0 18 18" fill="none" xmlns="http://www.w3.org/2000/svg">
<path d="M8.99994 3.99984C8.13081 4.00094 7.2976 4.34669 6.68303 4.96126C6.06846 5.57582 5.72271 6.40904 5.72161 7.27817H7.38828C7.38828 6.389 8.11161 5.6665 8.99994 5.6665C9.88828 5.6665 10.6116 6.389 10.6116 7.27817C10.6116 7.7765 10.2108 8.13817 9.59828 8.63317C9.39818 8.78992 9.206 8.95651 9.02244 9.13234C8.19078 9.96317 8.16661 10.8457 8.16661 10.944V11.4998H9.83328L9.83244 10.9723C9.83327 10.959 9.85994 10.6507 10.1999 10.3115C10.3249 10.1865 10.4824 10.0615 10.6458 9.92984C11.2949 9.404 12.2774 8.60984 12.2774 7.27817C12.2768 6.40905 11.9313 5.5757 11.3168 4.96106C10.7023 4.34643 9.86906 4.00072 8.99994 3.99984ZM8.16661 12.3332H9.83328V13.9998H8.16661V12.3332Z" fill="#757575"/>
<path d="M8.99996 0.666504C4.40496 0.666504 0.666626 4.40484 0.666626 8.99984C0.666626 13.5948 4.40496 17.3332 8.99996 17.3332C13.595 17.3332 17.3333 13.5948 17.3333 8.99984C17.3333 4.40484 13.595 0.666504 8.99996 0.666504ZM8.99996 15.6665C5.32413 15.6665 2.33329 12.6757 2.33329 8.99984C2.33329 5.324 5.32413 2.33317 8.99996 2.33317C12.6758 2.33317 15.6666 5.324 15.6666 8.99984C15.6666 12.6757 12.6758 15.6665 8.99996 15.6665Z" fill="#757575"/>
</svg>
