<svg width="16" height="18" viewBox="0 0 16 18" fill="none" xmlns="http://www.w3.org/2000/svg">
<path d="M2.16667 17.3333H13.8333C14.2754 17.3333 14.6993 17.1577 15.0118 16.8452C15.3244 16.5326 15.5 16.1087 15.5 15.6667V8.16668C15.5006 8.057 15.4796 7.94829 15.4381 7.84675C15.3967 7.74522 15.3356 7.65288 15.2583 7.57501L8.59167 0.908343C8.43553 0.753134 8.22432 0.666016 8.00417 0.666016C7.78401 0.666016 7.5728 0.753134 7.41667 0.908343L0.75 7.57501C0.67126 7.65219 0.608618 7.74423 0.565704 7.84579C0.522791 7.94735 0.500458 8.05642 0.5 8.16668V15.6667C0.5 16.1087 0.675595 16.5326 0.988155 16.8452C1.30072 17.1577 1.72464 17.3333 2.16667 17.3333ZM6.33333 15.6667V11.5H9.66667V15.6667H6.33333ZM2.16667 8.50834L8 2.67501L13.8333 8.50834V15.6667H11.3333V11.5C11.3333 11.058 11.1577 10.6341 10.8452 10.3215C10.5326 10.0089 10.1087 9.83334 9.66667 9.83334H6.33333C5.89131 9.83334 5.46738 10.0089 5.15482 10.3215C4.84226 10.6341 4.66667 11.058 4.66667 11.5V15.6667H2.16667V8.50834Z" fill="#fff"/>
</svg>
