<svg width="18" height="18" viewBox="0 0 18 18" fill="none" xmlns="http://www.w3.org/2000/svg">
<path d="M9.00002 0.666748C4.48252 0.666748 0.666687 4.48341 0.666687 9.00008C0.666687 13.5167 4.48252 17.3334 9.00002 17.3334C13.5175 17.3334 17.3334 13.5167 17.3334 9.00008C17.3334 4.48341 13.5175 0.666748 9.00002 0.666748ZM9.00002 15.6667C5.38585 15.6667 2.33335 12.6134 2.33335 9.00008C2.33335 5.66842 4.92919 2.81925 8.16669 2.39425V4.07508C5.80585 4.47425 4.00002 6.52758 4.00002 9.00008C4.00002 11.7576 6.24252 14.0001 9.00002 14.0001C10.3292 14.0001 11.5834 13.4784 12.5309 12.5309L11.3525 11.3517C11.0448 11.6628 10.6784 11.9098 10.2746 12.0783C9.8708 12.2468 9.43758 12.3335 9.00002 12.3334C7.16169 12.3334 5.66669 10.8384 5.66669 9.00008C5.66669 7.45175 6.73252 6.15758 8.16669 5.78508V7.57342C7.67502 7.86758 7.33335 8.40092 7.33335 9.00008C7.33335 9.90092 8.09919 10.6667 9.00002 10.6667C9.90085 10.6667 10.6667 9.90092 10.6667 9.00008C10.6667 8.40092 10.325 7.86758 9.83335 7.57342V2.39425C13.0709 2.81925 15.6667 5.66842 15.6667 9.00008C15.6667 12.6134 12.6142 15.6667 9.00002 15.6667Z" fill="#fff"/>
</svg>
