<svg width="14" height="18" viewBox="0 0 14 18" fill="none" xmlns="http://www.w3.org/2000/svg">
<path d="M13.5858 6.15508C13.5462 6.06464 13.4909 5.98196 13.4224 5.91092L8.42242 0.910915C8.35138 0.8424 8.2687 0.787091 8.17825 0.747581C8.15325 0.735915 8.12659 0.729248 8.09992 0.720081C8.03019 0.696353 7.9576 0.68206 7.88409 0.677581C7.86658 0.675915 7.85075 0.666748 7.83325 0.666748H1.99992C1.08075 0.666748 0.333252 1.41425 0.333252 2.33341V15.6667C0.333252 16.5859 1.08075 17.3334 1.99992 17.3334H11.9999C12.9191 17.3334 13.6666 16.5859 13.6666 15.6667V6.50008C13.6666 6.48258 13.6574 6.46675 13.6558 6.44841C13.6517 6.37485 13.6374 6.3022 13.6133 6.23258C13.6049 6.20591 13.5974 6.18008 13.5858 6.15508ZM10.8216 5.66675H8.66658V3.51175L10.8216 5.66675ZM1.99992 15.6667V2.33341H6.99992V6.50008C6.99992 6.7211 7.08772 6.93306 7.244 7.08934C7.40028 7.24562 7.61224 7.33342 7.83325 7.33342H11.9999L12.0016 15.6667H1.99992Z" fill="#D732A8"/>
<path d="M3.66659 9.00008H10.3333V10.6667H3.66659V9.00008ZM3.66659 12.3334H10.3333V14.0001H3.66659V12.3334ZM3.66659 5.66675H5.33325V7.33342H3.66659V5.66675Z" fill="#D732A8"/>
</svg>
