<svg width="20" height="20" viewBox="0 0 20 20" fill="none" xmlns="http://www.w3.org/2000/svg">
<path d="M9.16498 13.3334L13.3316 10.0001L9.16498 6.66675V9.16675H1.66498V10.8334H9.16498V13.3334Z" fill="#1E1E1E"/>
<path d="M10.8325 2.4993C9.8471 2.49656 8.87096 2.68939 7.96062 3.0666C7.05028 3.44381 6.22383 3.99791 5.52916 4.6968L6.7075 5.87513C7.80916 4.77346 9.27416 4.16596 10.8325 4.16596C12.3908 4.16596 13.8558 4.77346 14.9575 5.87513C16.0592 6.9768 16.6667 8.4418 16.6667 10.0001C16.6667 11.5585 16.0592 13.0235 14.9575 14.1251C13.8558 15.2268 12.3908 15.8343 10.8325 15.8343C9.27416 15.8343 7.80916 15.2268 6.7075 14.1251L5.52916 15.3035C6.945 16.7201 8.82833 17.501 10.8325 17.501C12.8367 17.501 14.72 16.7201 16.1358 15.3035C17.5525 13.8876 18.3333 12.0043 18.3333 10.0001C18.3333 7.99596 17.5525 6.11263 16.1358 4.6968C15.4412 3.99791 14.6147 3.44381 13.7044 3.0666C12.794 2.68939 11.8179 2.49656 10.8325 2.4993Z" fill="#fff"/>
</svg>
