<svg width="16" height="18" viewBox="0 0 16 18" fill="none" xmlns="http://www.w3.org/2000/svg">
<path d="M8.00002 12.3334C9.83835 12.3334 11.3334 10.8384 11.3334 9.00008C11.3334 7.16175 9.83835 5.66675 8.00002 5.66675C6.16169 5.66675 4.66669 7.16175 4.66669 9.00008C4.66669 10.8384 6.16169 12.3334 8.00002 12.3334ZM8.00002 7.33342C8.90335 7.33342 9.66669 8.09675 9.66669 9.00008C9.66669 9.90341 8.90335 10.6667 8.00002 10.6667C7.09669 10.6667 6.33335 9.90341 6.33335 9.00008C6.33335 8.09675 7.09669 7.33342 8.00002 7.33342Z" fill="#1E1E1E"/>
<path d="M0.370835 12.4467L1.20417 13.8884C1.64667 14.6526 2.71167 14.9392 3.47917 14.4967L3.92 14.2417C4.40212 14.621 4.93368 14.9328 5.5 15.1684V15.6667C5.5 16.5859 6.2475 17.3334 7.16667 17.3334H8.83334C9.7525 17.3334 10.5 16.5859 10.5 15.6667V15.1684C11.0661 14.9327 11.5977 14.6213 12.08 14.2426L12.5208 14.4976C13.29 14.9392 14.3525 14.6542 14.7967 13.8884L15.6292 12.4476C15.85 12.0648 15.9099 11.6101 15.7957 11.1832C15.6815 10.7563 15.4025 10.3922 15.02 10.1709L14.5992 9.92758C14.6886 9.31304 14.6886 8.68879 14.5992 8.07425L15.02 7.83091C15.4023 7.60944 15.6812 7.24536 15.7954 6.81855C15.9096 6.39173 15.8498 5.93705 15.6292 5.55425L14.7967 4.11342C14.3542 3.34675 13.29 3.05925 12.5208 3.50341L12.08 3.75841C11.5979 3.37917 11.0663 3.06741 10.5 2.83175V2.33341C10.5 1.41425 9.7525 0.666748 8.83334 0.666748H7.16667C6.2475 0.666748 5.5 1.41425 5.5 2.33341V2.83175C4.93387 3.06745 4.40235 3.3789 3.92 3.75758L3.47917 3.50258C2.70917 3.06008 1.64584 3.34675 1.20334 4.11258L0.370835 5.55341C0.149987 5.93616 0.0900947 6.39092 0.204314 6.8178C0.318534 7.24468 0.597524 7.60876 0.980002 7.83008L1.40084 8.07341C1.31103 8.68765 1.31103 9.31168 1.40084 9.92591L0.980002 10.1692C0.597636 10.3909 0.318776 10.7551 0.204579 11.1821C0.0903827 11.609 0.150172 12.0638 0.370835 12.4467ZM3.1425 10.1484C3.04841 9.77287 3.00055 9.38723 3 9.00008C3 8.61508 3.04834 8.22842 3.14167 7.85175C3.18562 7.67619 3.17116 7.49109 3.10049 7.32448C3.02982 7.15787 2.90678 7.01883 2.75 6.92841L1.81417 6.38675L2.64584 4.94592L3.6 5.49758C3.75561 5.58762 3.93622 5.62476 4.11473 5.60342C4.29323 5.58209 4.46 5.50343 4.59 5.37925C5.15377 4.84304 5.83361 4.44409 6.57667 4.21341C6.74736 4.1613 6.8968 4.05577 7.00302 3.91236C7.10923 3.76894 7.16659 3.59521 7.16667 3.41675V2.33341H8.83334V3.41675C8.83341 3.59521 8.89078 3.76894 8.99699 3.91236C9.1032 4.05577 9.25265 4.1613 9.42334 4.21341C10.1662 4.44442 10.846 4.84333 11.41 5.37925C11.5401 5.50319 11.7069 5.58168 11.8853 5.60301C12.0638 5.62434 12.2443 5.58736 12.4 5.49758L13.3533 4.94675L14.1867 6.38758L13.25 6.92841C13.0933 7.01893 12.9704 7.15798 12.8997 7.32456C12.829 7.49114 12.8145 7.67619 12.8583 7.85175C12.9517 8.22842 13 8.61508 13 9.00008C13 9.38425 12.9517 9.77092 12.8575 10.1484C12.8138 10.3241 12.8284 10.5092 12.8992 10.6758C12.97 10.8424 13.0932 10.9814 13.25 11.0717L14.1858 11.6126L13.3542 13.0534L12.4 12.5026C12.2444 12.4124 12.0638 12.3752 11.8853 12.3965C11.7067 12.4179 11.5399 12.4966 11.41 12.6209C10.8462 13.1571 10.1664 13.5561 9.42334 13.7867C9.25265 13.8389 9.1032 13.9444 8.99699 14.0878C8.89078 14.2312 8.83341 14.405 8.83334 14.5834L8.835 15.6667H7.16667V14.5834C7.16659 14.405 7.10923 14.2312 7.00302 14.0878C6.8968 13.9444 6.74736 13.8389 6.57667 13.7867C5.83376 13.5557 5.15399 13.1568 4.59 12.6209C4.46025 12.4963 4.29338 12.4173 4.11471 12.3961C3.93604 12.3749 3.75532 12.4126 3.6 12.5034L2.64667 13.0551L1.81334 11.6142L2.75 11.0717C2.90683 10.9814 3.02996 10.8424 3.10078 10.6758C3.17159 10.5092 3.18624 10.3241 3.1425 10.1484Z" fill="#1E1E1E"/>
</svg>
