<svg width="85" height="41" viewBox="0 0 85 41" fill="none" xmlns="http://www.w3.org/2000/svg">
<path fill-rule="evenodd" clip-rule="evenodd" d="M75.2909 20.8851C75.2909 16.2828 73.0617 12.6514 68.801 12.6514C64.5224 12.6514 61.9336 16.2828 61.9336 20.8491C61.9336 26.2604 64.9898 28.9929 69.3763 28.9929C71.5156 28.9929 73.1336 28.5075 74.3561 27.8244V24.2289C73.1336 24.8401 71.7313 25.2177 69.9516 25.2177C68.2077 25.2177 66.6617 24.6064 66.4639 22.4851H75.2549C75.2549 22.2514 75.2909 21.3165 75.2909 20.8851ZM66.41 19.1772C66.41 17.1457 67.6504 16.3008 68.783 16.3008C69.8797 16.3008 71.0482 17.1457 71.0482 19.1772H66.41Z" fill="#0A2540"/>
<path fill-rule="evenodd" clip-rule="evenodd" d="M54.9956 12.6514C53.2338 12.6514 52.1012 13.4783 51.472 14.0536L51.2383 12.939H47.2832V33.9008L51.7776 32.948L51.7956 27.8604C52.4427 28.3278 53.3956 28.9929 54.9776 28.9929C58.1956 28.9929 61.1259 26.4042 61.1259 20.7053C61.1079 15.4918 58.1416 12.6514 54.9956 12.6514ZM53.9169 25.0379C52.8562 25.0379 52.227 24.6604 51.7956 24.1929L51.7776 17.5233C52.245 17.0019 52.8922 16.6424 53.9169 16.6424C55.5529 16.6424 56.6854 18.4761 56.6854 20.8311C56.6854 23.2401 55.5708 25.0379 53.9169 25.0379Z" fill="#0A2540"/>
<path fill-rule="evenodd" clip-rule="evenodd" d="M41.0977 11.5909L45.61 10.6201V6.9707L41.0977 7.92351V11.5909Z" fill="#0A2540"/>
<path d="M45.61 12.957H41.0977V28.6874H45.61V12.957Z" fill="#0A2540"/>
<path fill-rule="evenodd" clip-rule="evenodd" d="M36.2626 14.2876L35.9749 12.9573H32.0918V28.6876H36.5862V18.027C37.6469 16.6427 39.4446 16.8944 40.0019 17.0921V12.9573C39.4266 12.7416 37.3233 12.3461 36.2626 14.2876Z" fill="#0A2540"/>
<path fill-rule="evenodd" clip-rule="evenodd" d="M27.2736 9.05566L22.8871 9.9905L22.8691 24.3905C22.8691 27.0512 24.8646 29.0107 27.5253 29.0107C28.9995 29.0107 30.0781 28.7411 30.6714 28.4175V24.768C30.0961 25.0017 27.2557 25.8287 27.2557 23.168V16.786H30.6714V12.9568H27.2557L27.2736 9.05566Z" fill="#0A2540"/>
<path fill-rule="evenodd" clip-rule="evenodd" d="M15.1206 17.5233C15.1206 16.8222 15.6959 16.5525 16.6487 16.5525C18.015 16.5525 19.7408 16.966 21.1071 17.7031V13.4783C19.615 12.8851 18.1408 12.6514 16.6487 12.6514C12.9992 12.6514 10.5723 14.557 10.5723 17.739C10.5723 22.7008 17.4037 21.9098 17.4037 24.0491C17.4037 24.8761 16.6846 25.1458 15.6779 25.1458C14.1857 25.1458 12.2801 24.5345 10.77 23.7075V27.9862C12.4419 28.7053 14.1318 29.0109 15.6779 29.0109C19.4172 29.0109 21.988 27.1592 21.988 23.9413C21.97 18.584 15.1206 19.5368 15.1206 17.5233Z" fill="#0A2540"/>
</svg>
