<svg width="20" height="20" viewBox="0 0 20 20" fill="none" xmlns="http://www.w3.org/2000/svg">
<path d="M10 1.66675C5.40502 1.66675 1.66669 5.40508 1.66669 10.0001V13.4526C1.66669 14.3059 2.41419 15.0001 3.33335 15.0001H4.16669C4.3877 15.0001 4.59966 14.9123 4.75594 14.756C4.91222 14.5997 5.00002 14.3878 5.00002 14.1667V9.88092C5.00002 9.6599 4.91222 9.44794 4.75594 9.29166C4.59966 9.13538 4.3877 9.04758 4.16669 9.04758H3.41002C3.87335 5.82258 6.64835 3.33341 10 3.33341C13.3517 3.33341 16.1267 5.82258 16.59 9.04758H15.8334C15.6123 9.04758 15.4004 9.13538 15.2441 9.29166C15.0878 9.44794 15 9.6599 15 9.88092V15.0001C15 15.9192 14.2525 16.6667 13.3334 16.6667H11.6667V15.8334H8.33335V18.3334H13.3334C15.1717 18.3334 16.6667 16.8384 16.6667 15.0001C17.5859 15.0001 18.3334 14.3059 18.3334 13.4526V10.0001C18.3334 5.40508 14.595 1.66675 10 1.66675Z" fill="#1E1E1E"/>
</svg>
